<svg xmlns="http://www.w3.org/2000/svg" viewBox="0 0 470 275" width="470" height="275" font-family="Georgia, 'Times New Roman', serif">
  <defs>
    <marker id="ab" viewBox="0 0 10 10" refX="9" refY="5" markerWidth="7" markerHeight="7" orient="auto-start-reverse"><path d="M 0 0 L 10 5 L 0 10 z" fill="#4C86D6"/></marker>
    <marker id="ao" viewBox="0 0 10 10" refX="9" refY="5" markerWidth="7" markerHeight="7" orient="auto-start-reverse"><path d="M 0 0 L 10 5 L 0 10 z" fill="#E08A3C"/></marker>
    <marker id="av" viewBox="0 0 10 10" refX="9" refY="5" markerWidth="7" markerHeight="7" orient="auto-start-reverse"><path d="M 0 0 L 10 5 L 0 10 z" fill="#8B7BD8"/></marker>
  </defs>
  <line x1="32" y1="234" x2="431" y2="192" stroke="#909090" stroke-width="1.1" stroke-dasharray="6 4"/>
  <line x1="59.5" y1="252.5" x2="147" y2="65" stroke="#909090" stroke-width="1.1" stroke-dasharray="6 4"/>
  <line x1="122.5" y1="117.5" x2="312.5" y2="97.5" stroke="#909090" stroke-width="1.2" stroke-dasharray="6 4"/>
  <line x1="70" y1="230" x2="260" y2="210" stroke="#4C86D6" stroke-width="2" stroke-dasharray="6 4" marker-end="url(#ab)"/>
  <line x1="260" y1="210" x2="312.5" y2="97.5" stroke="#E08A3C" stroke-width="2" stroke-dasharray="6 4" marker-end="url(#ao)"/>
  <line x1="70" y1="230" x2="165" y2="220" stroke="#4C86D6" stroke-width="3" marker-end="url(#ab)"/>
  <line x1="70" y1="230" x2="105" y2="155" stroke="#E08A3C" stroke-width="3" marker-end="url(#ao)"/>
  <line x1="70" y1="230" x2="312.5" y2="97.5" stroke="#8B7BD8" stroke-width="3.2" marker-end="url(#av)"/>
  <circle cx="70" cy="230" r="5" fill="#909090"/>
  <text x="56" y="236" font-size="16" fill="#909090" text-anchor="middle" font-weight="normal" font-style="italic">O</text>
  <text x="117.5" y="251" font-size="17" fill="#4C86D6" text-anchor="middle" font-weight="normal" font-style="italic">a</text>
  <line x1="113" y1="232" x2="122" y2="232" stroke="#4C86D6" stroke-width="1.3" marker-end="url(#ab)"/>
  <text x="69.5" y="192.5" font-size="17" fill="#E08A3C" text-anchor="middle" font-weight="normal" font-style="italic">b</text>
  <line x1="65" y1="173.5" x2="74" y2="173.5" stroke="#E08A3C" stroke-width="1.3" marker-end="url(#ao)"/>
  <text x="200" y="238" font-size="15" fill="#4C86D6" text-anchor="start" font-weight="normal" font-style="italic">2a</text>
  <text x="300" y="160" font-size="15" fill="#E08A3C" text-anchor="start" font-weight="normal" font-style="italic">1,5b</text>
  <text x="179.25" y="151.75" font-size="17" fill="#8B7BD8" text-anchor="middle" font-weight="normal" font-style="italic">c</text>
  <line x1="174.75" y1="132.75" x2="183.75" y2="132.75" stroke="#8B7BD8" stroke-width="1.3" marker-end="url(#av)"/>
  <text x="30" y="30" font-size="15" fill="#909090" text-anchor="start" font-weight="normal" font-family="Segoe UI, system-ui, Arial, sans-serif">c = 2a + 1,5b   ⇒   c = {2; 1,5} în baza {a, b}</text>
</svg>
