<svg xmlns="http://www.w3.org/2000/svg" viewBox="0 0 470 285" width="470" height="285" font-family="Georgia, 'Times New Roman', serif">
  <defs>
    <marker id="ab" viewBox="0 0 10 10" refX="9" refY="5" markerWidth="7" markerHeight="7" orient="auto-start-reverse"><path d="M 0 0 L 10 5 L 0 10 z" fill="#4C86D6"/></marker>
    <marker id="ao" viewBox="0 0 10 10" refX="9" refY="5" markerWidth="7" markerHeight="7" orient="auto-start-reverse"><path d="M 0 0 L 10 5 L 0 10 z" fill="#E08A3C"/></marker>
    <marker id="av" viewBox="0 0 10 10" refX="9" refY="5" markerWidth="7" markerHeight="7" orient="auto-start-reverse"><path d="M 0 0 L 10 5 L 0 10 z" fill="#8B7BD8"/></marker>
    <marker id="ag" viewBox="0 0 10 10" refX="9" refY="5" markerWidth="7" markerHeight="7" orient="auto-start-reverse"><path d="M 0 0 L 10 5 L 0 10 z" fill="#909090"/></marker>
  </defs>
  <line x1="40" y1="235" x2="450" y2="235" stroke="#909090" stroke-width="1.1" marker-end="url(#ag)"/>
  <line x1="58" y1="255" x2="120" y2="60" stroke="#909090" stroke-width="1.1" marker-end="url(#ag)"/>
  <line x1="70" y1="235" x2="170" y2="115" stroke="#4C86D6" stroke-width="2.6" marker-end="url(#ab)"/>
  <line x1="70" y1="235" x2="395" y2="160" stroke="#E08A3C" stroke-width="2.6" marker-end="url(#ao)"/>
  <line x1="170" y1="115" x2="395" y2="160" stroke="#8B7BD8" stroke-width="3.2" marker-end="url(#av)"/>
  <circle cx="70" cy="235" r="4.5" fill="#909090"/>
  <text x="58" y="253" font-size="16" fill="#909090" text-anchor="middle" font-weight="normal" font-style="italic">O</text>
  <circle cx="170" cy="115" r="4" fill="#909090"/>
  <circle cx="395" cy="160" r="4" fill="#909090"/>
  <text x="150" y="103" font-size="14" fill="#4C86D6" text-anchor="start" font-weight="normal" font-family="Segoe UI, system-ui, Arial, sans-serif">M₁(x₁; y₁)</text>
  <text x="355" y="186" font-size="14" fill="#E08A3C" text-anchor="start" font-weight="normal" font-family="Segoe UI, system-ui, Arial, sans-serif">M₂(x₂; y₂)</text>
  <text x="104" y="175" font-size="17" fill="#4C86D6" text-anchor="middle" font-weight="normal" font-style="italic">OM₁</text>
  <line x1="92.5" y1="156" x2="115.5" y2="156" stroke="#4C86D6" stroke-width="1.3" marker-end="url(#ab)"/>
  <text x="242.5" y="221.5" font-size="17" fill="#E08A3C" text-anchor="middle" font-weight="normal" font-style="italic">OM₂</text>
  <line x1="231" y1="202.5" x2="254" y2="202.5" stroke="#E08A3C" stroke-width="1.3" marker-end="url(#ao)"/>
  <text x="282.5" y="125.5" font-size="17" fill="#8B7BD8" text-anchor="middle" font-weight="normal" font-style="italic">M₁M₂</text>
  <line x1="267.5" y1="106.5" x2="297.5" y2="106.5" stroke="#8B7BD8" stroke-width="1.3" marker-end="url(#av)"/>
  <text x="30" y="275" font-size="15" fill="#909090" text-anchor="start" font-weight="normal" font-family="Segoe UI, system-ui, Arial, sans-serif">M₁M₂ = OM₂ − OM₁ = {x₂ − x₁;  y₂ − y₁}</text>
</svg>
