<svg xmlns="http://www.w3.org/2000/svg" viewBox="0 0 470 350" width="470" height="350" font-family="Georgia, 'Times New Roman', serif">
  <defs>
    <marker id="ab" viewBox="0 0 10 10" refX="9" refY="5" markerWidth="7" markerHeight="7" orient="auto-start-reverse"><path d="M 0 0 L 10 5 L 0 10 z" fill="#4C86D6"/></marker>
    <marker id="ao" viewBox="0 0 10 10" refX="9" refY="5" markerWidth="7" markerHeight="7" orient="auto-start-reverse"><path d="M 0 0 L 10 5 L 0 10 z" fill="#E08A3C"/></marker>
    <marker id="ag" viewBox="0 0 10 10" refX="9" refY="5" markerWidth="7" markerHeight="7" orient="auto-start-reverse"><path d="M 0 0 L 10 5 L 0 10 z" fill="#909090"/></marker>
    <marker id="av" viewBox="0 0 10 10" refX="9" refY="5" markerWidth="7" markerHeight="7" orient="auto-start-reverse"><path d="M 0 0 L 10 5 L 0 10 z" fill="#8B7BD8"/></marker>
    <marker id="at" viewBox="0 0 10 10" refX="9" refY="5" markerWidth="7" markerHeight="7" orient="auto-start-reverse"><path d="M 0 0 L 10 5 L 0 10 z" fill="#4CA88A"/></marker>
  </defs>
  <polygon points="162.8,209 372.8,209 267.5,290 57.5,290" fill="#4C86D6" stroke="#4C86D6" stroke-width="0.8" opacity="0.08"/>
  <text x="51.5" y="306" font-size="12" fill="#4C86D6" text-anchor="start" font-weight="normal" font-family="Segoe UI, system-ui, Arial, sans-serif">planul (OAB)</text>
  <line x1="170" y1="215" x2="320" y2="215" stroke="#4C86D6" stroke-width="2.6" marker-end="url(#ab)"/>
  <line x1="170" y1="215" x2="92" y2="275" stroke="#E08A3C" stroke-width="2.6" marker-end="url(#ao)"/>
  <line x1="170" y1="215" x2="170" y2="65" stroke="#4CA88A" stroke-width="2.6" marker-end="url(#at)"/>
  <line x1="170" y1="215" x2="297.5" y2="215" stroke="#4C86D6" stroke-width="1.2" stroke-dasharray="6 4"/>
  <line x1="297.5" y1="215" x2="235.1" y2="263" stroke="#E08A3C" stroke-width="1.2" stroke-dasharray="6 4"/>
  <line x1="170" y1="215" x2="235.1" y2="263" stroke="#909090" stroke-width="2" stroke-dasharray="6 4" marker-end="url(#ag)"/>
  <line x1="235.1" y1="263" x2="235.1" y2="150.5" stroke="#4CA88A" stroke-width="2.4" marker-end="url(#at)"/>
  <line x1="170" y1="215" x2="235.1" y2="150.5" stroke="#8B7BD8" stroke-width="3" marker-end="url(#av)"/>
  <line x1="235.1" y1="315.5" x2="235.1" y2="60.5" stroke="#909090" stroke-width="0.9" stroke-dasharray="6 4"/>
  <circle cx="170" cy="215" r="4.5" fill="#909090"/>
  <circle cx="235.1" cy="263" r="4.5" fill="#909090"/>
  <circle cx="235.1" cy="150.5" r="5" fill="#8B7BD8"/>
  <text x="158" y="219" font-size="16" fill="#909090" text-anchor="middle" font-weight="normal" font-style="italic">O</text>
  <text x="330" y="231" font-size="16" fill="#4C86D6" text-anchor="middle" font-weight="normal" font-style="italic">A</text>
  <text x="78" y="279" font-size="16" fill="#E08A3C" text-anchor="middle" font-weight="normal" font-style="italic">B</text>
  <text x="182" y="69" font-size="16" fill="#4CA88A" text-anchor="middle" font-weight="normal" font-style="italic">C</text>
  <text x="249.1" y="277" font-size="16" fill="#909090" text-anchor="middle" font-weight="normal" font-style="italic">P₁</text>
  <text x="249.1" y="146.5" font-size="16" fill="#8B7BD8" text-anchor="middle" font-weight="normal" font-style="italic">P</text>
  <text x="243.1" y="188" font-size="14" fill="#4CA88A" text-anchor="start" font-weight="normal" font-family="Segoe UI, system-ui, Arial, sans-serif">γ c</text>
  <text x="20" y="28" font-size="13" fill="#909090" text-anchor="start" font-weight="normal" font-family="Segoe UI, system-ui, Arial, sans-serif">prin P, paralela la (OC) taie planul (OAB) în P₁</text>
  <text x="20" y="340" font-size="14" fill="#8B7BD8" text-anchor="start" font-weight="bold" font-family="Segoe UI, system-ui, Arial, sans-serif">OP = OP₁ + P₁P = (α a + β b) + γ c</text>
</svg>
