<svg xmlns="http://www.w3.org/2000/svg" viewBox="0 0 470 300" width="470" height="300" font-family="Georgia, 'Times New Roman', serif">
  <defs>
    <marker id="ao" viewBox="0 0 10 10" refX="9" refY="5" markerWidth="7" markerHeight="7" orient="auto-start-reverse"><path d="M 0 0 L 10 5 L 0 10 z" fill="#E08A3C"/></marker>
    <marker id="ag" viewBox="0 0 10 10" refX="9" refY="5" markerWidth="7" markerHeight="7" orient="auto-start-reverse"><path d="M 0 0 L 10 5 L 0 10 z" fill="#909090"/></marker>
  </defs>
  <line x1="72" y1="28" x2="72" y2="262" stroke="#909090" stroke-width="0.8" opacity="0.22"/>
  <line x1="98" y1="28" x2="98" y2="262" stroke="#909090" stroke-width="0.8" opacity="0.22"/>
  <line x1="124" y1="28" x2="124" y2="262" stroke="#909090" stroke-width="0.8" opacity="0.22"/>
  <line x1="150" y1="28" x2="150" y2="262" stroke="#909090" stroke-width="0.8" opacity="0.22"/>
  <line x1="176" y1="28" x2="176" y2="262" stroke="#909090" stroke-width="0.8" opacity="0.22"/>
  <line x1="202" y1="28" x2="202" y2="262" stroke="#909090" stroke-width="0.8" opacity="0.22"/>
  <line x1="228" y1="28" x2="228" y2="262" stroke="#909090" stroke-width="0.8" opacity="0.22"/>
  <line x1="254" y1="28" x2="254" y2="262" stroke="#909090" stroke-width="0.8" opacity="0.22"/>
  <line x1="72" y1="28" x2="254" y2="28" stroke="#909090" stroke-width="0.8" opacity="0.22"/>
  <line x1="72" y1="54" x2="254" y2="54" stroke="#909090" stroke-width="0.8" opacity="0.22"/>
  <line x1="72" y1="80" x2="254" y2="80" stroke="#909090" stroke-width="0.8" opacity="0.22"/>
  <line x1="72" y1="106" x2="254" y2="106" stroke="#909090" stroke-width="0.8" opacity="0.22"/>
  <line x1="72" y1="132" x2="254" y2="132" stroke="#909090" stroke-width="0.8" opacity="0.22"/>
  <line x1="72" y1="158" x2="254" y2="158" stroke="#909090" stroke-width="0.8" opacity="0.22"/>
  <line x1="72" y1="184" x2="254" y2="184" stroke="#909090" stroke-width="0.8" opacity="0.22"/>
  <line x1="72" y1="210" x2="254" y2="210" stroke="#909090" stroke-width="0.8" opacity="0.22"/>
  <line x1="72" y1="236" x2="254" y2="236" stroke="#909090" stroke-width="0.8" opacity="0.22"/>
  <line x1="72" y1="262" x2="254" y2="262" stroke="#909090" stroke-width="0.8" opacity="0.22"/>
  <line x1="72" y1="80" x2="262" y2="80" stroke="#909090" stroke-width="1.1" marker-end="url(#ag)"/>
  <line x1="150" y1="262" x2="150" y2="20" stroke="#909090" stroke-width="1.1" marker-end="url(#ag)"/>
  <text x="264" y="85" font-size="14" fill="#909090" text-anchor="start" font-weight="normal" font-style="italic">x</text>
  <text x="136" y="24" font-size="14" fill="#909090" text-anchor="start" font-weight="normal" font-style="italic">y</text>
  <line x1="92.8" y1="28" x2="228" y2="253.333" stroke="#8B7BD8" stroke-width="2.2"/>
  <line x1="124" y1="80" x2="202" y2="210" stroke="#E08A3C" stroke-width="3" marker-end="url(#ao)"/>
  <circle cx="202" cy="210" r="5" fill="#909090"/>
  <circle cx="124" cy="80" r="4.5" fill="#909090"/>
  <circle cx="150" cy="123.333" r="3.5" fill="#909090"/>
  <text x="212" y="214" font-size="13" fill="#909090" text-anchor="start" font-weight="normal" font-family="Segoe UI, system-ui, Arial, sans-serif">A(2; −5)</text>
  <text x="66" y="72" font-size="12" fill="#909090" text-anchor="start" font-weight="normal" font-family="Segoe UI, system-ui, Arial, sans-serif">(−1; 0)</text>
  <text x="181" y="145" font-size="17" fill="#E08A3C" text-anchor="middle" font-weight="normal" font-style="italic">a</text>
  <line x1="176.5" y1="126" x2="185.5" y2="126" stroke="#E08A3C" stroke-width="1.3" marker-end="url(#ao)"/>
  <text x="300" y="40" font-size="14" fill="#E08A3C" text-anchor="start" font-weight="normal" font-family="Segoe UI, system-ui, Arial, sans-serif">a = {3; −5}</text>
  <text x="300" y="66" font-size="13" fill="#8B7BD8" text-anchor="start" font-weight="normal" font-family="Segoe UI, system-ui, Arial, sans-serif">(x − 2)/3 = (y + 5)/(−5)</text>
  <text x="300" y="88" font-size="15" fill="#8B7BD8" text-anchor="start" font-weight="bold" font-family="Segoe UI, system-ui, Arial, sans-serif">5x + 3y + 5 = 0</text>
  <text x="300" y="120" font-size="12" fill="#909090" text-anchor="start" font-weight="normal" font-family="Segoe UI, system-ui, Arial, sans-serif">verificare: A dă</text>
  <text x="300" y="136" font-size="12" fill="#909090" text-anchor="start" font-weight="normal" font-family="Segoe UI, system-ui, Arial, sans-serif">10 − 15 + 5 = 0 ✓</text>
</svg>
