<svg xmlns="http://www.w3.org/2000/svg" viewBox="0 0 480 290" width="480" height="290" font-family="Georgia, 'Times New Roman', serif">
  <defs>
    <marker id="ab" viewBox="0 0 10 10" refX="9" refY="5" markerWidth="7" markerHeight="7" orient="auto-start-reverse"><path d="M 0 0 L 10 5 L 0 10 z" fill="#4C86D6"/></marker>
    <marker id="ao" viewBox="0 0 10 10" refX="9" refY="5" markerWidth="7" markerHeight="7" orient="auto-start-reverse"><path d="M 0 0 L 10 5 L 0 10 z" fill="#E08A3C"/></marker>
    <marker id="av" viewBox="0 0 10 10" refX="9" refY="5" markerWidth="7" markerHeight="7" orient="auto-start-reverse"><path d="M 0 0 L 10 5 L 0 10 z" fill="#8B7BD8"/></marker>
  </defs>
  <line x1="40" y1="120" x2="90" y2="215" stroke="#909090" stroke-width="1.2" stroke-dasharray="6 4"/>
  <line x1="150" y1="90" x2="200" y2="185" stroke="#909090" stroke-width="1.2" stroke-dasharray="6 4"/>
  <line x1="90" y1="215" x2="290" y2="75" stroke="#909090" stroke-width="1.2" stroke-dasharray="6 4"/>
  <line x1="200" y1="185" x2="400" y2="45" stroke="#909090" stroke-width="1.2" stroke-dasharray="6 4"/>
  <line x1="40" y1="120" x2="290" y2="75" stroke="#8B7BD8" stroke-width="1.5" stroke-dasharray="6 4"/>
  <line x1="150" y1="90" x2="400" y2="45" stroke="#8B7BD8" stroke-width="1.5" stroke-dasharray="6 4"/>
  <line x1="40" y1="120" x2="150" y2="90" stroke="#4C86D6" stroke-width="2.8" marker-end="url(#ab)"/>
  <line x1="90" y1="215" x2="200" y2="185" stroke="#E08A3C" stroke-width="2.8" marker-end="url(#ao)"/>
  <line x1="290" y1="75" x2="400" y2="45" stroke="#8B7BD8" stroke-width="2.8" marker-end="url(#av)"/>
  <circle cx="40" cy="120" r="4.5" fill="#4C86D6"/>
  <circle cx="90" cy="215" r="4.5" fill="#E08A3C"/>
  <circle cx="290" cy="75" r="4.5" fill="#8B7BD8"/>
  <text x="27" y="126" font-size="16" fill="#4C86D6" text-anchor="middle" font-weight="normal" font-style="italic">A</text>
  <text x="154" y="79" font-size="16" fill="#4C86D6" text-anchor="middle" font-weight="normal" font-style="italic">B</text>
  <text x="77" y="223" font-size="16" fill="#E08A3C" text-anchor="middle" font-weight="normal" font-style="italic">C</text>
  <text x="213" y="195" font-size="16" fill="#E08A3C" text-anchor="middle" font-weight="normal" font-style="italic">D</text>
  <text x="298" y="97" font-size="16" fill="#8B7BD8" text-anchor="middle" font-weight="normal" font-style="italic">E</text>
  <text x="414" y="41" font-size="16" fill="#8B7BD8" text-anchor="middle" font-weight="normal" font-style="italic">F</text>
  <text x="250" y="190" font-size="12" fill="#909090" text-anchor="start" font-weight="normal" font-family="Segoe UI, system-ui, Arial, sans-serif">ABDC — paralelogram (ipoteza 1)</text>
  <text x="250" y="208" font-size="12" fill="#909090" text-anchor="start" font-weight="normal" font-family="Segoe UI, system-ui, Arial, sans-serif">CDFE — paralelogram (ipoteza 2)</text>
  <text x="250" y="226" font-size="12" fill="#8B7BD8" text-anchor="start" font-weight="normal" font-family="Segoe UI, system-ui, Arial, sans-serif">ABFE — paralelogram (concluzia)</text>
  <text x="20" y="262" font-size="13" fill="#909090" text-anchor="start" font-weight="normal" font-family="Segoe UI, system-ui, Arial, sans-serif">AB ↑↑ CD ↑↑ EF și |AB| = |CD| = |EF|</text>
  <text x="20" y="281" font-size="13" fill="#8B7BD8" text-anchor="start" font-weight="normal" font-family="Segoe UI, system-ui, Arial, sans-serif">⇒ AB ↑↑ EF și |AB| = |EF|: AB echipolent cu EF</text>
</svg>
