<svg xmlns="http://www.w3.org/2000/svg" viewBox="0 0 470 274" width="470" height="274" font-family="Georgia, 'Times New Roman', serif">
  <defs>
    <marker id="ab" viewBox="0 0 10 10" refX="9" refY="5" markerWidth="7" markerHeight="7" orient="auto-start-reverse"><path d="M 0 0 L 10 5 L 0 10 z" fill="#4C86D6"/></marker>
    <marker id="ao" viewBox="0 0 10 10" refX="9" refY="5" markerWidth="7" markerHeight="7" orient="auto-start-reverse"><path d="M 0 0 L 10 5 L 0 10 z" fill="#E08A3C"/></marker>
    <marker id="av" viewBox="0 0 10 10" refX="9" refY="5" markerWidth="7" markerHeight="7" orient="auto-start-reverse"><path d="M 0 0 L 10 5 L 0 10 z" fill="#8B7BD8"/></marker>
    <marker id="ag" viewBox="0 0 10 10" refX="9" refY="5" markerWidth="7" markerHeight="7" orient="auto-start-reverse"><path d="M 0 0 L 10 5 L 0 10 z" fill="#909090"/></marker>
  </defs>
  <line x1="40" y1="230" x2="450" y2="230" stroke="#909090" stroke-width="1.1" marker-end="url(#ag)"/>
  <line x1="70" y1="250" x2="70" y2="40" stroke="#909090" stroke-width="1.1" marker-end="url(#ag)"/>
  <text x="452" y="236" font-size="14" fill="#909090" text-anchor="start" font-weight="normal" font-style="italic">x</text>
  <text x="62" y="36" font-size="14" fill="#909090" text-anchor="start" font-weight="normal" font-style="italic">y</text>
  <path d="M 369.0 195.0 L 369.0 184.0 L 380.0 184.0" fill="none" stroke="#909090" stroke-width="1.3"/>
  <line x1="140" y1="195" x2="380" y2="195" stroke="#4C86D6" stroke-width="2.4" marker-end="url(#ab)"/>
  <line x1="380" y1="195" x2="380" y2="80" stroke="#E08A3C" stroke-width="2.4" marker-end="url(#ao)"/>
  <line x1="140" y1="195" x2="380" y2="80" stroke="#8B7BD8" stroke-width="3.2" marker-end="url(#av)"/>
  <circle cx="140" cy="195" r="5" fill="#8B7BD8"/>
  <circle cx="380" cy="80" r="5" fill="#8B7BD8"/>
  <text x="64" y="187" font-size="14" fill="#8B7BD8" text-anchor="start" font-weight="normal" font-family="Segoe UI, system-ui, Arial, sans-serif">A(x₁; y₁)</text>
  <text x="390" y="74" font-size="14" fill="#8B7BD8" text-anchor="start" font-weight="normal" font-family="Segoe UI, system-ui, Arial, sans-serif">B(x₂; y₂)</text>
  <text x="230" y="215" font-size="14" fill="#4C86D6" text-anchor="start" font-weight="normal" font-family="Segoe UI, system-ui, Arial, sans-serif">x₂ − x₁</text>
  <text x="390" y="145" font-size="14" fill="#E08A3C" text-anchor="start" font-weight="normal" font-family="Segoe UI, system-ui, Arial, sans-serif">y₂ − y₁</text>
  <text x="205" y="120" font-size="15" fill="#8B7BD8" text-anchor="start" font-weight="normal" font-family="Segoe UI, system-ui, Arial, sans-serif">ρ(A, B)</text>
  <text x="30" y="266" font-size="14" fill="#909090" text-anchor="start" font-weight="normal" font-family="Segoe UI, system-ui, Arial, sans-serif">ρ(A, B) = √((x₂ − x₁)² + (y₂ − y₁)²)</text>
</svg>
