<svg xmlns="http://www.w3.org/2000/svg" viewBox="0 0 480 320" width="480" height="320" font-family="Georgia, 'Times New Roman', serif">
  <defs>
    <marker id="ab" viewBox="0 0 10 10" refX="9" refY="5" markerWidth="7" markerHeight="7" orient="auto-start-reverse"><path d="M 0 0 L 10 5 L 0 10 z" fill="#4C86D6"/></marker>
    <marker id="ao" viewBox="0 0 10 10" refX="9" refY="5" markerWidth="7" markerHeight="7" orient="auto-start-reverse"><path d="M 0 0 L 10 5 L 0 10 z" fill="#E08A3C"/></marker>
    <marker id="av" viewBox="0 0 10 10" refX="9" refY="5" markerWidth="7" markerHeight="7" orient="auto-start-reverse"><path d="M 0 0 L 10 5 L 0 10 z" fill="#8B7BD8"/></marker>
    <marker id="ag" viewBox="0 0 10 10" refX="9" refY="5" markerWidth="7" markerHeight="7" orient="auto-start-reverse"><path d="M 0 0 L 10 5 L 0 10 z" fill="#909090"/></marker>
  </defs>
  <text x="20" y="22" font-size="13" fill="#909090" text-anchor="start" font-weight="normal" font-family="Segoe UI, system-ui, Arial, sans-serif">aceeași linie frântă, construită din A și din B</text>
  <line x1="40" y1="130" x2="230" y2="250" stroke="#909090" stroke-width="1.4" stroke-dasharray="6 4" marker-end="url(#ag)"/>
  <line x1="120" y1="60" x2="310" y2="180" stroke="#909090" stroke-width="1.4" stroke-dasharray="6 4" marker-end="url(#ag)"/>
  <line x1="230" y1="90" x2="420" y2="210" stroke="#909090" stroke-width="1.4" stroke-dasharray="6 4" marker-end="url(#ag)"/>
  <line x1="40" y1="130" x2="120" y2="60" stroke="#4C86D6" stroke-width="2.8" marker-end="url(#ab)"/>
  <line x1="120" y1="60" x2="230" y2="90" stroke="#E08A3C" stroke-width="2.8" marker-end="url(#ao)"/>
  <line x1="40" y1="130" x2="230" y2="90" stroke="#8B7BD8" stroke-width="3" marker-end="url(#av)"/>
  <line x1="230" y1="250" x2="310" y2="180" stroke="#4C86D6" stroke-width="2.8" marker-end="url(#ab)"/>
  <line x1="310" y1="180" x2="420" y2="210" stroke="#E08A3C" stroke-width="2.8" marker-end="url(#ao)"/>
  <line x1="230" y1="250" x2="420" y2="210" stroke="#8B7BD8" stroke-width="3" marker-end="url(#av)"/>
  <circle cx="40" cy="130" r="4.5" fill="#909090"/>
  <circle cx="230" cy="250" r="4.5" fill="#909090"/>
  <text x="27" y="136" font-size="16" fill="#909090" text-anchor="middle" font-weight="normal" font-style="italic">A</text>
  <text x="120" y="49" font-size="16" fill="#909090" text-anchor="middle" font-weight="normal" font-style="italic">A₁</text>
  <text x="246" y="84" font-size="16" fill="#909090" text-anchor="middle" font-weight="normal" font-style="italic">A₂</text>
  <text x="216" y="256" font-size="16" fill="#909090" text-anchor="middle" font-weight="normal" font-style="italic">B</text>
  <text x="306" y="168" font-size="16" fill="#909090" text-anchor="middle" font-weight="normal" font-style="italic">B₁</text>
  <text x="436" y="216" font-size="16" fill="#909090" text-anchor="middle" font-weight="normal" font-style="italic">B₂</text>
  <text x="64" y="92" font-size="17" fill="#4C86D6" text-anchor="middle" font-weight="normal" font-style="italic">a₁</text>
  <line x1="56" y1="73" x2="72" y2="73" stroke="#4C86D6" stroke-width="1.3" marker-end="url(#ab)"/>
  <text x="175" y="62" font-size="17" fill="#E08A3C" text-anchor="middle" font-weight="normal" font-style="italic">a₂</text>
  <line x1="167" y1="43" x2="183" y2="43" stroke="#E08A3C" stroke-width="1.3" marker-end="url(#ao)"/>
  <text x="252" y="212" font-size="17" fill="#4C86D6" text-anchor="middle" font-weight="normal" font-style="italic">a₁</text>
  <line x1="244" y1="193" x2="260" y2="193" stroke="#4C86D6" stroke-width="1.3" marker-end="url(#ab)"/>
  <text x="374" y="184" font-size="17" fill="#E08A3C" text-anchor="middle" font-weight="normal" font-style="italic">a₂</text>
  <line x1="366" y1="165" x2="382" y2="165" stroke="#E08A3C" stroke-width="1.3" marker-end="url(#ao)"/>
  <text x="152" y="139" font-size="17" fill="#8B7BD8" text-anchor="middle" font-weight="normal" font-style="italic">a</text>
  <line x1="147.5" y1="120" x2="156.5" y2="120" stroke="#8B7BD8" stroke-width="1.3" marker-end="url(#av)"/>
  <text x="336" y="257" font-size="17" fill="#8B7BD8" text-anchor="middle" font-weight="normal" font-style="italic">a</text>
  <line x1="331.5" y1="238" x2="340.5" y2="238" stroke="#8B7BD8" stroke-width="1.3" marker-end="url(#av)"/>
  <text x="20" y="290" font-size="13" fill="#909090" text-anchor="start" font-weight="normal" font-family="Segoe UI, system-ui, Arial, sans-serif">AB = A₁B₁ = A₂B₂ (săgețile gri, pas cu pas)</text>
  <text x="20" y="310" font-size="13" fill="#8B7BD8" text-anchor="start" font-weight="normal" font-family="Segoe UI, system-ui, Arial, sans-serif">⇒ AA₂ = BB₂: suma nu depinde de punctul de plecare</text>
</svg>
