<svg xmlns="http://www.w3.org/2000/svg" viewBox="0 0 470 290" width="470" height="290" font-family="Georgia, 'Times New Roman', serif">
  <defs>
    <marker id="ab" viewBox="0 0 10 10" refX="9" refY="5" markerWidth="7" markerHeight="7" orient="auto-start-reverse"><path d="M 0 0 L 10 5 L 0 10 z" fill="#4C86D6"/></marker>
    <marker id="ao" viewBox="0 0 10 10" refX="9" refY="5" markerWidth="7" markerHeight="7" orient="auto-start-reverse"><path d="M 0 0 L 10 5 L 0 10 z" fill="#E08A3C"/></marker>
  </defs>
  <polygon points="70,230 400,230 175,60" fill="#8B7BD8" stroke="#8B7BD8" stroke-width="1" opacity="0.13"/>
  <line x1="70" y1="230" x2="400" y2="230" stroke="#4C86D6" stroke-width="2.8" marker-end="url(#ab)"/>
  <line x1="70" y1="230" x2="175" y2="60" stroke="#E08A3C" stroke-width="2.8" marker-end="url(#ao)"/>
  <line x1="400" y1="230" x2="175" y2="60" stroke="#909090" stroke-width="1.6"/>
  <line x1="175" y1="60" x2="175" y2="230" stroke="#4CA88A" stroke-width="1.6" stroke-dasharray="6 4"/>
  <path d="M 185.0 230.0 L 185.0 220.0 L 175.0 220.0" fill="none" stroke="#4CA88A" stroke-width="1.3"/>
  <path d="M 116.0 230.0 A 46 46 0 0 0 94.4 191.0" fill="none" stroke="#8B7BD8" stroke-width="1.8"/>
  <circle cx="70" cy="230" r="4.5" fill="#909090"/>
  <circle cx="400" cy="230" r="4.5" fill="#909090"/>
  <circle cx="175" cy="60" r="4.5" fill="#909090"/>
  <text x="58" y="238" font-size="16" fill="#909090" text-anchor="middle" font-weight="normal" font-style="italic">A</text>
  <text x="414" y="238" font-size="16" fill="#909090" text-anchor="middle" font-weight="normal" font-style="italic">B</text>
  <text x="175" y="48" font-size="16" fill="#909090" text-anchor="middle" font-weight="normal" font-style="italic">C</text>
  <text x="124.743" y="200.893" font-size="16" fill="#8B7BD8" text-anchor="start" font-weight="normal" font-style="italic">Â</text>
  <text x="183" y="145" font-size="14" fill="#4CA88A" text-anchor="start" font-weight="normal" font-family="Segoe UI, system-ui, Arial, sans-serif">h = |AC| · sin Â</text>
  <text x="215" y="254" font-size="15" fill="#4C86D6" text-anchor="start" font-weight="normal" font-family="Segoe UI, system-ui, Arial, sans-serif">|AB|</text>
  <text x="74.5" y="145" font-size="15" fill="#E08A3C" text-anchor="start" font-weight="normal" font-family="Segoe UI, system-ui, Arial, sans-serif">|AC|</text>
  <text x="20" y="280" font-size="14" fill="#909090" text-anchor="start" font-weight="normal" font-family="Segoe UI, system-ui, Arial, sans-serif">S = ½ · bază · înălțime = ½ · |AB| · |AC| · sin Â</text>
</svg>
